<svg width="162" height="42" viewBox="0 0 162 42" fill="none" xmlns="http://www.w3.org/2000/svg">
<path d="M64.07 32L56.99 22.7V32H51.86V10.94H56.99V20.18L64.01 10.94H70.04L61.88 21.26L70.34 32H64.07ZM77.908 18.05C78.508 17.13 79.258 16.41 80.158 15.89C81.058 15.35 82.058 15.08 83.158 15.08V20.51H81.748C80.468 20.51 79.508 20.79 78.868 21.35C78.228 21.89 77.908 22.85 77.908 24.23V32H72.778V15.26H77.908V18.05ZM84.59 23.6C84.59 21.88 84.91 20.37 85.55 19.07C86.21 17.77 87.1 16.77 88.22 16.07C89.34 15.37 90.59 15.02 91.97 15.02C93.15 15.02 94.18 15.26 95.06 15.74C95.96 16.22 96.65 16.85 97.13 17.63V15.26H102.26V32H97.13V29.63C96.63 30.41 95.93 31.04 95.03 31.52C94.15 32 93.12 32.24 91.94 32.24C90.58 32.24 89.34 31.89 88.22 31.19C87.1 30.47 86.21 29.46 85.55 28.16C84.91 26.84 84.59 25.32 84.59 23.6ZM97.13 23.63C97.13 22.35 96.77 21.34 96.05 20.6C95.35 19.86 94.49 19.49 93.47 19.49C92.45 19.49 91.58 19.86 90.86 20.6C90.16 21.32 89.81 22.32 89.81 23.6C89.81 24.88 90.16 25.9 90.86 26.66C91.58 27.4 92.45 27.77 93.47 27.77C94.49 27.77 95.35 27.4 96.05 26.66C96.77 25.92 97.13 24.91 97.13 23.63ZM116.201 32L111.101 24.98V32H105.971V9.8H111.101V22.07L116.171 15.26H122.501L115.541 23.66L122.561 32H116.201ZM140.296 23.36C140.296 23.84 140.266 24.34 140.206 24.86H128.596C128.676 25.9 129.006 26.7 129.586 27.26C130.186 27.8 130.916 28.07 131.776 28.07C133.056 28.07 133.946 27.53 134.446 26.45H139.906C139.626 27.55 139.116 28.54 138.376 29.42C137.656 30.3 136.746 30.99 135.646 31.49C134.546 31.99 133.316 32.24 131.956 32.24C130.316 32.24 128.856 31.89 127.576 31.19C126.296 30.49 125.296 29.49 124.576 28.19C123.856 26.89 123.496 25.37 123.496 23.63C123.496 21.89 123.846 20.37 124.546 19.07C125.266 17.77 126.266 16.77 127.546 16.07C128.826 15.37 130.296 15.02 131.956 15.02C133.576 15.02 135.016 15.36 136.276 16.04C137.536 16.72 138.516 17.69 139.216 18.95C139.936 20.21 140.296 21.68 140.296 23.36ZM135.046 22.01C135.046 21.13 134.746 20.43 134.146 19.91C133.546 19.39 132.796 19.13 131.896 19.13C131.036 19.13 130.306 19.38 129.706 19.88C129.126 20.38 128.766 21.09 128.626 22.01H135.046ZM153.203 15.08C155.163 15.08 156.723 15.72 157.883 17C159.063 18.26 159.653 20 159.653 22.22V32H154.553V22.91C154.553 21.79 154.263 20.92 153.683 20.3C153.103 19.68 152.323 19.37 151.343 19.37C150.363 19.37 149.583 19.68 149.003 20.3C148.423 20.92 148.133 21.79 148.133 22.91V32H143.003V15.26H148.133V17.48C148.653 16.74 149.353 16.16 150.233 15.74C151.113 15.3 152.103 15.08 153.203 15.08Z" fill="white"/>
<g clip-path="url(#clip0_260_2)">
<path d="M37.3734 28.6453C33.6089 25.4387 34.3653 22.257 36.0531 18.1363C38.978 10.9955 34.1223 2.80055 27.0646 0.680858C19.4447 -1.60781 11.0128 1.99672 8.17662 9.60971C7.46155 11.5365 7.15461 13.5909 7.27526 15.6426C7.41742 18.0661 8.48251 19.9878 9.25139 22.2297C10.6623 26.3445 6.94631 29.8376 3.78302 31.8751C-0.0565324 34.3525 0.803729 35.1446 3.09166 35.3088C5.00939 35.4466 6.74025 34.9357 8.44543 34.0746C9.20012 33.6934 11.783 32.5217 12.1475 31.7295C11.148 33.9107 9.11546 37.6934 10.3869 40.1051C11.9537 43.077 15.8921 37.4989 16.6794 36.3471C17.3841 35.3158 20.2037 29.6796 21.8988 32.4977C23.4463 35.0702 22.6043 38.7641 24.8304 41.0799C27.5255 43.8854 29.0267 39.5778 29.0478 37.4524C29.0612 36.1062 28.5474 29.5896 31.5006 32.5351C33.2578 34.2891 35.8404 38.3742 38.7653 38.0331C41.9429 37.6627 36.9506 32.4577 36.447 31.5777C36.8894 31.9287 40.8492 34.3772 40.8617 32.3586C40.8707 30.8173 38.3938 29.5148 37.3734 28.6453Z" fill="#FED8FF"/>
</g>
<defs>
<clipPath id="clip0_260_2">
<rect width="42" height="42" fill="white"/>
</clipPath>
</defs>
</svg>
